<?xml version="1.0" encoding="iso-8859-1"?>
<!-- Uploaded to: SVG Repo, www.svgrepo.com, Generator: SVG Repo Mixer Tools -->
<svg height="800px" width="800px" version="1.1" id="Layer_1" xmlns="http://www.w3.org/2000/svg" xmlns:xlink="http://www.w3.org/1999/xlink" 
	 viewBox="0 0 512 512" xml:space="preserve">
<path style="fill:#FFFFFF;" d="M93.2,408L78.4,160h29.2h32h290L414,408H156h-32H93.2z M278.8,371.6c30.8-12,53.2-46.8,53.2-88
	c0-51.2-34-92.4-76.4-92.4c-4.4,0-9.2,0.4-13.2,1.6c-35.6,7.6-62.8,45.6-62.8,90.8c0,51.2,34,92.4,76.4,92.4
	C263.6,376,271.6,374.4,278.8,371.6z"/>
<path style="fill:#5D4037;" d="M332,283.6c0,41.2-22.4,76-53.2,88c-7.2,2.8-15.2,4.4-23.2,4.4c-42,0-76.4-41.2-76.4-92.4
	c0-45.6,27.2-83.2,62.8-90.8c4.4-0.8,8.8-1.6,13.2-1.6C297.6,191.2,332,232.4,332,283.6z"/>
<path style="fill:#8D6E63;" d="M464,60c0,4.4-4.4,8-8.8,8h-16H68.8H55.2c-4.4,0-7.6-3.6-7.6-8v-4c0-4.4,3.2-8,7.6-8h0.4h12h32h355.2
	c4.4,0,8.8,3.6,8.8,8v4H464z"/>
<path style="fill:#A1887F;" d="M415.2,4c22,0,40.8,18,40.8,40v4h-0.8H100H68H56v-4C56,22,74,4,96,4H415.2z"/>
<g>
	<polygon style="fill:#D7CCC8;" points="439.6,68 434,160 432,160 430,160 140,160 108,160 78.8,160 76,160 74.8,160 69.2,68 	"/>
	<path style="fill:#D7CCC8;" d="M434,161.2l-18.8,314.4c-1.2,17.6-16.4,32.4-34,32.4h-254c-17.6,0-32.8-14.4-34-32L74.4,160.4
		l1.2-0.4h2.8l14.8,248H124h32h258.4L430,160h2L434,161.2z"/>
</g>
<path d="M381.2,512h-254c-19.6,0-36.8-16-38-35.6L65.2,70c0-2.4,1.6-4,3.6-4.4c2,0,4,1.6,4.4,3.6l24,406.4c0.8,15.6,14.4,28,30,28
	h254c15.6,0,29.2-12.8,30-28l24-406c0-2.4,2-4,4.4-3.6c2.4,0,4,2,3.6,4.4l-24,406C418,496,401.2,512,381.2,512z"/>
<path d="M456,52c-2.4,0-4-1.6-4-4v-4c0-19.6-16.8-36-36.8-36H96C76,8,60,24,60,44v4c0,2.4-1.6,4-4,4s-4-1.6-4-4v-4
	C52,19.6,71.6,0,96,0h319.2C439.6,0,460,20,460,44v4C460,50.4,458.4,52,456,52z"/>
<path d="M455.2,72H55.6C49.2,72,44,66.8,44,60v-4c0-6.8,5.2-12,11.6-12H68c2.4,0,4,1.6,4,4s-1.6,4-4,4H56c-2.4,0-4,1.6-4,4v4
	c0,2.4,1.6,4,3.6,4h399.6c2.4,0,4.8-2,4.8-4v-4c0-2-2.4-4-4.8-4H100c-2.4,0-4-1.6-4-4s1.6-4,4-4h355.2c6.8,0,12.8,5.6,12.8,12v4
	C468,66.4,462,72,455.2,72z"/>
<path d="M432,164H140c-2.4,0-4-1.6-4-4s1.6-4,4-4h292c2.4,0,4,1.6,4,4S434.4,164,432,164z"/>
<path d="M108,164H76c-2.4,0-4-1.6-4-4s1.6-4,4-4h32c2.4,0,4,1.6,4,4S110.4,164,108,164z"/>
<path d="M416,412H156c-2.4,0-4-1.6-4-4s1.6-4,4-4h260c2.4,0,4,1.6,4,4S418.4,412,416,412z"/>
<path d="M124,412H92c-2.4,0-4-1.6-4-4s1.6-4,4-4h32c2.4,0,4,1.6,4,4S126.4,412,124,412z"/>
<path d="M255.6,380c-44.4,0-80.4-43.2-80.4-96.4c0-46.8,27.6-86.8,66-94.8c4.4-1.2,9.2-1.6,14.4-1.6c44.4,0,80.4,43.2,80.4,96.4
	c0,42-22.4,78.8-55.6,91.6C272.4,378.4,264,380,255.6,380z M255.6,195.2c-4.4,0-8.4,0.4-12.4,1.2l0,0c-34.8,7.6-59.6,44-59.6,87.2
	c0,48.8,32.4,88.4,72.4,88.4c7.6,0,14.8-1.2,21.6-4c30.4-11.6,50.4-45.6,50.4-84.4C328,234.8,295.6,195.2,255.6,195.2z"/>
<path d="M278.8,375.6c-0.4,0-1.2,0-1.6-0.4c-2-0.8-2.8-3.2-2-5.2c4-8.8,6-18.4,6-28.8c0-28.8-12.8-43.6-24.8-58
	c-9.2-10.8-18.4-22.4-22.4-40c-0.4-2,0.8-4.4,2.8-4.8s4.4,0.8,4.8,2.8c3.6,15.6,12.4,26.8,20.8,36.8c12.8,14.8,26.8,31.6,26.8,63.2
	c0,11.6-2,22.4-6.4,32C282,374.8,280.4,375.6,278.8,375.6z"/>
<path d="M236.4,212.4c-0.4,0-0.4,0-0.8,0c-2-0.4-3.6-2.8-3.2-4.8c1.2-6,3.2-11.6,6-16.8c1.2-2,3.6-2.8,5.2-1.6
	c2,1.2,2.8,3.6,1.6,5.2c-2.4,4.8-4,9.6-5.2,14.8C240,211.2,238.4,212.4,236.4,212.4z"/>
</svg>